<mxfile host="app.diagrams.net" modified="2023-08-29T06:23:37.290Z" agent="Mozilla/5.0 (Windows NT 10.0; Win64; x64) AppleWebKit/537.36 (KHTML, like Gecko) Chrome/116.0.0.0 Safari/537.36 Edg/116.0.1938.62" etag="rtgvOx1s4Ez1YgUdKkKh" version="21.6.9" type="github">
  <diagram name="第 1 页" id="22OlHM2PYEOw6OhiyrgF">
    <mxGraphModel dx="1379" dy="751" grid="1" gridSize="10" guides="1" tooltips="1" connect="1" arrows="1" fold="1" page="1" pageScale="1" pageWidth="827" pageHeight="1169" math="0" shadow="0">
      <root>
        <mxCell id="0" />
        <mxCell id="1" parent="0" />
        <mxCell id="4fkXrxAAlHRIrl3kg4tR-1" value="" style="rounded=1;whiteSpace=wrap;html=1;fillColor=#dae8fc;strokeColor=#6c8ebf;" vertex="1" parent="1">
          <mxGeometry x="90" y="130" width="180" height="90" as="geometry" />
        </mxCell>
        <mxCell id="4fkXrxAAlHRIrl3kg4tR-2" value="10.192.11.77" style="text;html=1;align=center;verticalAlign=middle;resizable=0;points=[];autosize=1;strokeColor=none;fillColor=none;" vertex="1" parent="1">
          <mxGeometry x="90" y="140" width="90" height="30" as="geometry" />
        </mxCell>
        <mxCell id="4fkXrxAAlHRIrl3kg4tR-3" value="" style="rounded=1;whiteSpace=wrap;html=1;fillColor=#dae8fc;strokeColor=#6c8ebf;" vertex="1" parent="1">
          <mxGeometry x="90" y="270" width="180" height="90" as="geometry" />
        </mxCell>
        <mxCell id="4fkXrxAAlHRIrl3kg4tR-4" value="10.192.11.247" style="text;html=1;align=center;verticalAlign=middle;resizable=0;points=[];autosize=1;strokeColor=none;fillColor=none;" vertex="1" parent="1">
          <mxGeometry x="85" y="280" width="100" height="30" as="geometry" />
        </mxCell>
        <mxCell id="4fkXrxAAlHRIrl3kg4tR-5" value="" style="rounded=1;whiteSpace=wrap;html=1;fillColor=#dae8fc;strokeColor=#6c8ebf;" vertex="1" parent="1">
          <mxGeometry x="460" y="130" width="180" height="90" as="geometry" />
        </mxCell>
        <mxCell id="4fkXrxAAlHRIrl3kg4tR-6" value="10.192.11.84" style="text;html=1;align=center;verticalAlign=middle;resizable=0;points=[];autosize=1;strokeColor=none;fillColor=none;" vertex="1" parent="1">
          <mxGeometry x="460" y="140" width="90" height="30" as="geometry" />
        </mxCell>
      </root>
    </mxGraphModel>
  </diagram>
</mxfile>
